<svg id="Layer_1" data-name="Layer 1" xmlns="http://www.w3.org/2000/svg" viewBox="0 0 1868.25 725.21"><defs><style>.cls-1,.cls-3{fill:#fff;}.cls-1,.cls-2{stroke:#000;}.cls-1,.cls-2,.cls-3{stroke-miterlimit:10;}.cls-2{font-size:452.8px;stroke-width:3px;font-family:PoiretOne-Regular, Poiret One;letter-spacing:0.1em;}.cls-3{stroke:#fff;stroke-width:0.25px;}</style></defs><path class="cls-1" d="M249.5,518.5" transform="translate(-25.87 -177.39)"/><text class="cls-2" transform="translate(359.53 532.41)">Isshu.</text><path class="cls-3" d="M736.53,664.16c.58-.3-2.45-6.94-4.33-6.86-1.71.35-1.46,7.89-1.06,8.05C732.13,660,733.42,659.76,736.53,664.16Z" transform="translate(-25.87 -177.39)"/><path class="cls-3" d="M535.86,665.64c.55-.23-2.63-8.32-4.69-8.46-1.71.35-1.12,9.44-.7,9.65C531.22,660.43,532.51,660.2,535.86,665.64Z" transform="translate(-25.87 -177.39)"/><path class="cls-3" d="M623.29,534.44c-.53.27,3.1,8.16,5.16,8.18,1.69-.44.59-9.49.16-9.67C628.22,539.38,626.94,539.68,623.29,534.44Z" transform="translate(-25.87 -177.39)"/><path class="cls-3" d="M824.36,534.58c-.55.27,3.12,8.15,5.23,8.16,1.74-.46.68-9.51.24-9.69C829.38,539.5,828.07,539.8,824.36,534.58Z" transform="translate(-25.87 -177.39)"/></svg>