<svg xmlns="http://www.w3.org/2000/svg" viewBox="0 0 1198.78 511.24"><defs><style>.cls-1,.cls-2{fill:#fafafa;stroke:#fafafa;stroke-miterlimit:10;}.cls-1{stroke-width:3px;}</style></defs><g id="Layer_2" data-name="Layer 2"><g id="Layer_1-2" data-name="Layer 1"><path class="cls-1" d="M64.91,1.5H79.85V341.1H64.91Z" transform="translate(-6)"/><path class="cls-1" d="M232.89,144.58a31.2,31.2,0,0,0-20.82,7.7Q203,160,203,171.3t10.19,20.83a123.33,123.33,0,0,0,24.45,17.43q14.26,7.94,28.75,17a87.79,87.79,0,0,1,24.68,23.09,53.36,53.36,0,0,1,10.19,32.15q0,26.73-20.15,45.51t-48.68,18.79a73.62,73.62,0,0,1-33.73-7.92q-15.63-7.92-22.87-21.06V295.37q17.21,38,55.24,38,23.55,0,39.62-14.49t16.08-32.37q0-17.88-10.19-30.12a94.78,94.78,0,0,0-24.68-20.82q-14.49-8.59-28.75-17a94.66,94.66,0,0,1-24.45-20.38,42,42,0,0,1-10.19-28.07q0-16.06,12.91-27.17t33.28-11.09q20.37,0,34.86,15.84v18.57Q255.08,144.59,232.89,144.58Z" transform="translate(-6)"/><path class="cls-1" d="M433.93,144.58a31.2,31.2,0,0,0-20.82,7.7q-9.08,7.71-9.06,19t10.19,20.83a123.33,123.33,0,0,0,24.45,17.43q14.26,7.94,28.75,17a87.79,87.79,0,0,1,24.68,23.09,53.36,53.36,0,0,1,10.19,32.15q0,26.73-20.15,45.51t-48.68,18.79a73.65,73.65,0,0,1-33.73-7.92q-15.63-7.92-22.87-21.06V295.37q17.21,38,55.24,38,23.55,0,39.62-14.49t16.08-32.37q0-17.88-10.19-30.12A94.78,94.78,0,0,0,453,235.6q-14.49-8.59-28.75-17a94.66,94.66,0,0,1-24.45-20.38,42,42,0,0,1-10.19-28.07q0-16.06,12.9-27.17t33.29-11.09q20.37,0,34.86,15.84v18.57Q456.12,144.59,433.93,144.58Z" transform="translate(-6)"/><path class="cls-1" d="M605.09,341.1H590.6V2h14.49V176.73q22.63-44.37,78.33-44.37,38,0,64.08,26.26t26,63.85V341.1H759V222.47q0-31.69-22.19-54.57T683.42,145q-31.23,0-54.78,23.09t-23.55,54.34Z" transform="translate(-6)"/><path class="cls-1" d="M1032.53,137.34H1047V341.1h-14.49V299.89q-23.1,46.19-78.79,46.19-38,0-63.84-26.26T864.09,256V137.34h14.49V256q0,31.25,22,54.34t53.2,23.09q31.25,0,55-23.09T1032.53,256Z" transform="translate(-6)"/><path class="cls-1" d="M1146.41,344.27q-15.63,0-15.62-14t15.62-14q15.61,0,15.62,14T1146.41,344.27Z" transform="translate(-6)"/><path class="cls-2" d="M43.45,446.74a17.86,17.86,0,0,1,10.35-2.9,15,15,0,0,1,10.7,4.4q4.6,4.39,4.6,11.9v29.8H65.9v-29.8a13.18,13.18,0,0,0-3.8-9.65A12.37,12.37,0,0,0,53,446.64a13.29,13.29,0,0,0-9.5,4,12.51,12.51,0,0,0-4.15,9.3v30H36.1v-30a13,13,0,0,0-3.8-9.35,12.3,12.3,0,0,0-9.2-3.95,12.86,12.86,0,0,0-9.4,4,12.72,12.72,0,0,0-4,9.3v30H6.5v-45H9.7v6.3a16.67,16.67,0,0,1,6-5.2,16.6,16.6,0,0,1,8.2-2.2,13.31,13.31,0,0,1,8.15,3,16.94,16.94,0,0,1,5.7,7.65A14.25,14.25,0,0,1,43.45,446.74Z" transform="translate(-6)"/><path class="cls-2" d="M94,434c-1.94,0-2.9-.9-2.9-2.7s1-2.7,2.9-2.7,2.9.9,2.9,2.7S95.93,434,94,434Zm1.6,11v44.9H92.4V445Z" transform="translate(-6)"/><path class="cls-2" d="M122.1,489.94h-3.2v-45h3.2V454q5.1-10.2,17.4-10.2a19,19,0,0,1,14.1,5.8,19.36,19.36,0,0,1,5.7,14.1v26.2h-3.2v-26.2a16.86,16.86,0,0,0-4.85-12,15.63,15.63,0,0,0-11.75-5.1,16.92,16.92,0,0,0-12.15,5.1,16.2,16.2,0,0,0-5.25,12Z" transform="translate(-6)"/><path class="cls-2" d="M184.2,434c-1.94,0-2.9-.9-2.9-2.7s1-2.7,2.9-2.7,2.9.9,2.9,2.7S186.13,434,184.2,434Zm1.6,11v44.9h-3.2V445Z" transform="translate(-6)"/><path class="cls-2" d="M246.05,446.74a17.86,17.86,0,0,1,10.35-2.9,15,15,0,0,1,10.7,4.4q4.59,4.39,4.6,11.9v29.8h-3.2v-29.8a13.18,13.18,0,0,0-3.8-9.65,12.4,12.4,0,0,0-9.15-3.85,13.28,13.28,0,0,0-9.5,4,12.51,12.51,0,0,0-4.15,9.3v30h-3.2v-30a13,13,0,0,0-3.8-9.35,12.32,12.32,0,0,0-9.2-3.95,13.67,13.67,0,0,0-13.4,13.3v30h-3.2v-45h3.2v6.3a18.13,18.13,0,0,1,14.15-7.4,13.31,13.31,0,0,1,8.15,3,16.94,16.94,0,0,1,5.7,7.65A14.2,14.2,0,0,1,246.05,446.74Z" transform="translate(-6)"/><path class="cls-2" d="M338.59,444.94v45H335.4v-11.2a21,21,0,0,1-8.41,9,23.66,23.66,0,0,1-28.8-3.65,23.3,23.3,0,0,1,0-33.3,23,23,0,0,1,16.8-7,24,24,0,0,1,12.25,3.4,18.39,18.39,0,0,1,8.16,9v-11.3Zm-44.19,22.6a21,21,0,0,0,20.75,20.7,19.44,19.44,0,0,0,14.44-6.15,20.76,20.76,0,0,0,0-29.25,19.5,19.5,0,0,0-14.45-6.2,19.74,19.74,0,0,0-14.55,6.25A20.2,20.2,0,0,0,294.4,467.54Z" transform="translate(-6)"/><path class="cls-2" d="M377.69,488v2.8a17,17,0,0,1-12.1-4.75,16,16,0,0,1-5-12.15v-59h3.2v59a13.75,13.75,0,0,0,13.9,14.1Z" transform="translate(-6)"/><path class="cls-2" d="M398.59,434c-1.93,0-2.9-.9-2.9-2.7s1-2.7,2.9-2.7,2.9.9,2.9,2.7S400.53,434,398.59,434Zm1.6,11v44.9H397V445Z" transform="translate(-6)"/><path class="cls-2" d="M433.29,446.54a6.86,6.86,0,0,0-4.6,1.7,5.3,5.3,0,0,0-2,4.2,6.23,6.23,0,0,0,2.25,4.6,27.43,27.43,0,0,0,5.4,3.85q3.15,1.74,6.35,3.75a19.31,19.31,0,0,1,5.45,5.1,11.76,11.76,0,0,1,2.25,7.1,13.24,13.24,0,0,1-4.45,10.05A15.23,15.23,0,0,1,433.19,491a16.31,16.31,0,0,1-7.45-1.75,11.52,11.52,0,0,1-5.05-4.65v-4.8q3.8,8.4,12.2,8.4a12.61,12.61,0,0,0,8.75-3.2,9.49,9.49,0,0,0,3.55-7.15,10,10,0,0,0-2.25-6.65,20.85,20.85,0,0,0-5.45-4.6q-3.19-1.9-6.35-3.75a21.16,21.16,0,0,1-5.4-4.5,9.3,9.3,0,0,1-2.25-6.2,7.61,7.61,0,0,1,2.85-6,10.84,10.84,0,0,1,7.35-2.45,10,10,0,0,1,7.7,3.5v4.1Q438.2,446.54,433.29,446.54Z" transform="translate(-6)"/><path class="cls-2" d="M484,487.74v2.8a16.92,16.92,0,0,1-12.1-4.75,16,16,0,0,1-5-12.15v-46.8h3.2V445h13.8v2.8h-13.8v25.8a13.75,13.75,0,0,0,13.9,14.1Z" transform="translate(-6)"/><path class="cls-2" d="M504.89,434c-1.93,0-2.9-.9-2.9-2.7s1-2.7,2.9-2.7,2.9.9,2.9,2.7S506.82,434,504.89,434Zm1.6,11v44.9h-3.2V445Z" transform="translate(-6)"/><path class="cls-2" d="M551.59,491.24h-.9a22.22,22.22,0,0,1-16.5-7.1,23.15,23.15,0,0,1-6.9-16.65,22.44,22.44,0,0,1,7-16.5,23.45,23.45,0,0,1,17.2-6.95,22.93,22.93,0,0,1,17.4,7.7v5.1a23.13,23.13,0,0,0-7.85-7.3,20.8,20.8,0,1,0,0,36.2,22.85,22.85,0,0,0,7.85-7.4v5.2A22.46,22.46,0,0,1,551.59,491.24Z" transform="translate(-6)"/><path class="cls-2" d="M632.39,489.94v-75h3.2v41a20.44,20.44,0,0,1,8.45-8.8,23.69,23.69,0,0,1,12-3.3,23.6,23.6,0,1,1,0,47.2,23.41,23.41,0,0,1-11.7-3.25,22.18,22.18,0,0,1-8.7-8.75v10.9Zm3-22.4a21,21,0,0,0,20.75,20.7,19.46,19.46,0,0,0,14.45-6.15,20.76,20.76,0,0,0-.05-29.25,19.51,19.51,0,0,0-14.45-6.2,19.72,19.72,0,0,0-14.55,6.25A20.21,20.21,0,0,0,635.39,467.54Z" transform="translate(-6)"/><path class="cls-2" d="M735.49,444.94h3.2v45h-3.2v-9.1q-5.1,10.2-17.4,10.2a19,19,0,0,1-14.1-5.8,19.38,19.38,0,0,1-5.7-14.1v-26.2h3.2v26.2a16.82,16.82,0,0,0,4.85,12,15.61,15.61,0,0,0,11.75,5.1,16.92,16.92,0,0,0,12.15-5.1,16.2,16.2,0,0,0,5.25-12Z" transform="translate(-6)"/><path class="cls-2" d="M801.49,444.94h3.2v40.8q0,11.6-6.4,18.3t-16.8,6.7a25.36,25.36,0,0,1-11.1-2.6,21.58,21.58,0,0,1-8.4-6.8v-4.6a20.71,20.71,0,0,0,8.15,8,22.49,22.49,0,0,0,11.35,3.2,18.94,18.94,0,0,0,14.4-5.95q5.6-6,5.6-16.25V479a20.39,20.39,0,0,1-8.5,8.8,24,24,0,0,1-12,3.3,23,23,0,0,1-16.8-6.95,23.3,23.3,0,0,1,0-33.3,23,23,0,0,1,16.8-6.95,24,24,0,0,1,12.15,3.25,20,20,0,0,1,8.35,8.95Zm-41.1,22.6a21,21,0,0,0,20.75,20.8,19.46,19.46,0,0,0,14.45-6.15,20.89,20.89,0,0,0,0-29.3,19.46,19.46,0,0,0-14.45-6.15,21,21,0,0,0-20.75,20.8Z" transform="translate(-6)"/><path class="cls-2" d="M887.79,487.74v2.8a16.9,16.9,0,0,1-12.1-4.75,16,16,0,0,1-5-12.15v-46.8h3.2V445h13.8v2.8h-13.8v25.8a13.75,13.75,0,0,0,13.9,14.1Z" transform="translate(-6)"/><path class="cls-2" d="M922.39,446.64a12.9,12.9,0,0,0-9.35,4,12.66,12.66,0,0,0-4,9.3v30h-3.2v-45H909v6.7a14,14,0,0,1,5.6-5.6,16.6,16.6,0,0,1,8.5-2.2,14.83,14.83,0,0,1,9,3.2v4A13.47,13.47,0,0,0,922.39,446.64Z" transform="translate(-6)"/><path class="cls-2" d="M995.48,444.94v45h-3.19v-11.2a21,21,0,0,1-8.41,9,23.66,23.66,0,0,1-28.8-3.65,23.3,23.3,0,0,1,0-33.3,23,23,0,0,1,16.8-7,24,24,0,0,1,12.25,3.4,18.39,18.39,0,0,1,8.16,9v-11.3Zm-44.19,22.6A21,21,0,0,0,972,488.24a19.44,19.44,0,0,0,14.44-6.15,20.78,20.78,0,0,0,0-29.25,20,20,0,0,0-29,.05A20.17,20.17,0,0,0,951.29,467.54Z" transform="translate(-6)"/><path class="cls-2" d="M1039.28,491.24h-.9a22.22,22.22,0,0,1-16.5-7.1,23.15,23.15,0,0,1-6.9-16.65,22.48,22.48,0,0,1,7-16.5,23.45,23.45,0,0,1,17.2-6.95,22.93,22.93,0,0,1,17.4,7.7v5.1a23,23,0,0,0-7.85-7.3,20.8,20.8,0,1,0,0,36.2,22.76,22.76,0,0,0,7.85-7.4v5.2A22.45,22.45,0,0,1,1039.28,491.24Z" transform="translate(-6)"/><path class="cls-2" d="M1075.08,415.14h3.2v45.4l17.8-15.6h4.1l-20.6,18,25.8,27h-4.3l-22.8-23.7v23.7h-3.2Z" transform="translate(-6)"/><path class="cls-2" d="M1141,491.14h-.9a22.53,22.53,0,0,1-16.55-7.15,23,23,0,0,1-7-16.65,22.42,22.42,0,0,1,7-16.45,23.58,23.58,0,0,1,17.3-6.95q10.31,0,17.7,8.2l-31.4,31q6.51,5.19,12.5,5.2a21.08,21.08,0,0,0,10.75-2.75,23.68,23.68,0,0,0,7.85-7.35v5.1A22.42,22.42,0,0,1,1141,491.14Zm-1-44.4a21,21,0,0,0-20.25,20.3,20.51,20.51,0,0,0,5.3,14l29.1-28.9A20.93,20.93,0,0,0,1139.93,446.74Z" transform="translate(-6)"/><path class="cls-2" d="M1194.58,446.64a12.91,12.91,0,0,0-9.35,4,12.66,12.66,0,0,0-4,9.3v30H1178v-45h3.2v6.7a14.08,14.08,0,0,1,5.6-5.6,16.65,16.65,0,0,1,8.5-2.2,14.79,14.79,0,0,1,9,3.2v4A13.43,13.43,0,0,0,1194.58,446.64Z" transform="translate(-6)"/></g></g></svg>