<svg id="Layer_1" data-name="Layer 1" xmlns="http://www.w3.org/2000/svg" viewBox="0 0 1197.78 510.74"><defs><style>.cls-1,.cls-3{fill:#fff;}.cls-1,.cls-2{stroke:#000;}.cls-1,.cls-2,.cls-3{stroke-miterlimit:10;}.cls-2{stroke-width:3px;}.cls-3{stroke:#fff;stroke-width:0.25px;}</style></defs><path class="cls-1" d="M249.5,462.4" transform="translate(-363.22 -291.43)"/><path class="cls-2" d="M421.63,292.93h14.94v339.6H421.63Z" transform="translate(-363.22 -291.43)"/><path class="cls-2" d="M589.62,436a31.21,31.21,0,0,0-20.83,7.7q-9.07,7.69-9.06,19t10.19,20.82A123.36,123.36,0,0,0,594.37,501q14.26,7.92,28.75,17a87.79,87.79,0,0,1,24.68,23.09A53.36,53.36,0,0,1,658,573.21q0,26.71-20.15,45.5t-48.68,18.8a73.53,73.53,0,0,1-33.73-7.93q-15.63-7.92-22.87-21.05V586.79q17.21,38,55.24,38,23.55,0,39.62-14.49T643.5,578q0-17.88-10.19-30.11A94.82,94.82,0,0,0,608.63,527q-14.49-8.6-28.75-17a94.42,94.42,0,0,1-24.45-20.37,42.06,42.06,0,0,1-10.19-28.08q0-16.06,12.91-27.16t33.28-11.1q20.37,0,34.86,15.85v18.57Q611.8,436,589.62,436Z" transform="translate(-363.22 -291.43)"/><path class="cls-2" d="M790.66,436a31.21,31.21,0,0,0-20.83,7.7q-9.06,7.69-9.06,19T771,483.55A123.36,123.36,0,0,0,795.41,501q14.26,7.92,28.75,17a87.79,87.79,0,0,1,24.68,23.09A53.36,53.36,0,0,1,859,573.21q0,26.71-20.15,45.5t-48.68,18.8a73.53,73.53,0,0,1-33.73-7.93q-15.63-7.92-22.87-21.05V586.79q17.21,38,55.24,38,23.55,0,39.62-14.49T844.54,578q0-17.88-10.19-30.11A94.82,94.82,0,0,0,809.67,527q-14.49-8.6-28.75-17a94.42,94.42,0,0,1-24.45-20.37,42.06,42.06,0,0,1-10.19-28.08q0-16.06,12.91-27.16t33.28-11.1q20.37,0,34.86,15.85v18.57Q812.84,436,790.66,436Z" transform="translate(-363.22 -291.43)"/><path class="cls-2" d="M961.81,632.53H947.32V293.38h14.49V468.16q22.63-44.37,78.33-44.37,38,0,64.08,26.26t26,63.84V632.53h-14.49V513.89q0-31.68-22.18-54.56t-53.44-22.87q-31.23,0-54.78,23.1t-23.55,54.33Z" transform="translate(-363.22 -291.43)"/><path class="cls-2" d="M1389.25,428.77h14.49V632.53h-14.49V591.32q-23.1,46.18-78.79,46.19-38,0-63.84-26.27t-25.81-63.84V428.77h14.49V547.4q0,31.25,22,54.34t53.2,23.09q31.24,0,55-23.09t23.77-54.34Z" transform="translate(-363.22 -291.43)"/><path class="cls-2" d="M1503.13,635.7q-15.63,0-15.62-14t15.62-14q15.61,0,15.62,14T1503.13,635.7Z" transform="translate(-363.22 -291.43)"/><path class="cls-3" d="M736.53,587.06c.58-.3-2.45-6.95-4.33-6.87-1.71.36-1.46,7.9-1.06,8C732.13,582.89,733.42,582.66,736.53,587.06Z" transform="translate(-363.22 -291.43)"/><path class="cls-3" d="M535.86,587.54c.55-.24-2.63-8.32-4.69-8.46-1.71.35-1.12,9.44-.7,9.65C531.22,582.32,532.51,582.1,535.86,587.54Z" transform="translate(-363.22 -291.43)"/><path class="cls-3" d="M623.29,456.33c-.53.27,3.1,8.17,5.16,8.19,1.69-.45.59-9.49.16-9.67C628.22,461.28,626.94,461.58,623.29,456.33Z" transform="translate(-363.22 -291.43)"/><path class="cls-3" d="M824.36,456.47c-.55.28,3.12,8.16,5.23,8.17,1.74-.46.68-9.52.24-9.7C829.38,461.39,828.07,461.7,824.36,456.47Z" transform="translate(-363.22 -291.43)"/><path d="M400.17,738.16a17.94,17.94,0,0,1,10.35-2.9,15,15,0,0,1,10.7,4.4q4.61,4.41,4.6,11.9v29.8h-3.2v-29.8a13.21,13.21,0,0,0-3.8-9.65,12.41,12.41,0,0,0-9.15-3.85,13.34,13.34,0,0,0-9.5,4,12.54,12.54,0,0,0-4.15,9.3v30h-3.2v-30A13.06,13.06,0,0,0,389,742a12.3,12.3,0,0,0-9.2-4,12.9,12.9,0,0,0-9.4,4,12.75,12.75,0,0,0-4,9.3v30h-3.2v-45h3.2v6.3a18.13,18.13,0,0,1,14.15-7.4,13.38,13.38,0,0,1,8.15,3,17,17,0,0,1,5.7,7.65A14.28,14.28,0,0,1,400.17,738.16Z" transform="translate(-363.22 -291.43)"/><path d="M450.72,725.46c-1.93,0-2.9-.9-2.9-2.7s1-2.7,2.9-2.7,2.9.9,2.9,2.7S452.65,725.46,450.72,725.46Zm1.6,11v44.9h-3.2v-44.9Z" transform="translate(-363.22 -291.43)"/><path d="M478.82,781.36h-3.2v-45h3.2v9.1q5.1-10.2,17.4-10.2a19,19,0,0,1,14.1,5.8,19.38,19.38,0,0,1,5.7,14.1v26.2h-3.2v-26.2a16.86,16.86,0,0,0-4.85-12,15.63,15.63,0,0,0-11.75-5.1,16.92,16.92,0,0,0-12.15,5.1,16.2,16.2,0,0,0-5.25,12Z" transform="translate(-363.22 -291.43)"/><path d="M540.92,725.46c-1.94,0-2.9-.9-2.9-2.7s1-2.7,2.9-2.7,2.9.9,2.9,2.7S542.85,725.46,540.92,725.46Zm1.6,11v44.9h-3.2v-44.9Z" transform="translate(-363.22 -291.43)"/><path d="M602.77,738.16a17.94,17.94,0,0,1,10.35-2.9,15,15,0,0,1,10.7,4.4q4.59,4.41,4.6,11.9v29.8h-3.2v-29.8a13.21,13.21,0,0,0-3.8-9.65,12.44,12.44,0,0,0-9.15-3.85,13.32,13.32,0,0,0-9.5,4,12.54,12.54,0,0,0-4.15,9.3v30h-3.2v-30a13.06,13.06,0,0,0-3.8-9.35,12.32,12.32,0,0,0-9.2-4,13.67,13.67,0,0,0-13.4,13.3v30h-3.2v-45H569v6.3a18.13,18.13,0,0,1,14.15-7.4,13.38,13.38,0,0,1,8.15,3,17,17,0,0,1,5.7,7.65A14.23,14.23,0,0,1,602.77,738.16Z" transform="translate(-363.22 -291.43)"/><path d="M695.32,736.36v45h-3.2v-11.2a21.07,21.07,0,0,1-8.4,9,23.28,23.28,0,0,1-12,3.3,23,23,0,0,1-16.8-7,23.3,23.3,0,0,1,0-33.3,23,23,0,0,1,16.8-7,24.11,24.11,0,0,1,12.25,3.4,18.5,18.5,0,0,1,8.15,9v-11.3ZM651.12,759a21,21,0,0,0,20.75,20.7,19.46,19.46,0,0,0,14.45-6.15,20.76,20.76,0,0,0-.05-29.25,19.51,19.51,0,0,0-14.45-6.2,19.76,19.76,0,0,0-14.55,6.25A20.23,20.23,0,0,0,651.12,759Z" transform="translate(-363.22 -291.43)"/><path d="M734.41,779.46v2.8a16.93,16.93,0,0,1-12.1-4.75,16,16,0,0,1-5-12.15v-59h3.2v59a13.75,13.75,0,0,0,13.9,14.1Z" transform="translate(-363.22 -291.43)"/><path d="M755.31,725.46c-1.93,0-2.9-.9-2.9-2.7s1-2.7,2.9-2.7,2.9.9,2.9,2.7S757.25,725.46,755.31,725.46Zm1.6,11v44.9h-3.2v-44.9Z" transform="translate(-363.22 -291.43)"/><path d="M790,738a6.93,6.93,0,0,0-4.6,1.7,5.33,5.33,0,0,0-2,4.2,6.22,6.22,0,0,0,2.25,4.6,27,27,0,0,0,5.4,3.85q3.15,1.76,6.35,3.75a19.46,19.46,0,0,1,5.45,5.1,11.8,11.8,0,0,1,2.25,7.1,13.21,13.21,0,0,1-4.45,10,15.17,15.17,0,0,1-10.75,4.15,16.21,16.21,0,0,1-7.45-1.75,11.41,11.41,0,0,1-5.05-4.65v-4.8q3.81,8.4,12.2,8.4a12.54,12.54,0,0,0,8.75-3.2,9.46,9.46,0,0,0,3.55-7.15,10,10,0,0,0-2.25-6.65,20.88,20.88,0,0,0-5.45-4.6l-6.35-3.75a20.76,20.76,0,0,1-5.4-4.5,9.26,9.26,0,0,1-2.25-6.2,7.64,7.64,0,0,1,2.85-6,10.89,10.89,0,0,1,7.35-2.45,10.07,10.07,0,0,1,7.7,3.5v4.1Q794.92,738,790,738Z" transform="translate(-363.22 -291.43)"/><path d="M840.71,779.16V782a16.92,16.92,0,0,1-12.1-4.75,16,16,0,0,1-5-12.15v-46.8h3.2v18.2h13.8v2.8h-13.8v25.8a13.75,13.75,0,0,0,13.9,14.1Z" transform="translate(-363.22 -291.43)"/><path d="M861.61,725.46c-1.93,0-2.9-.9-2.9-2.7s1-2.7,2.9-2.7,2.9.9,2.9,2.7S863.54,725.46,861.61,725.46Zm1.6,11v44.9H860v-44.9Z" transform="translate(-363.22 -291.43)"/><path d="M908.31,782.66h-.9a22.18,22.18,0,0,1-16.5-7.1,23.11,23.11,0,0,1-6.9-16.65,22.47,22.47,0,0,1,7-16.5,23.49,23.49,0,0,1,17.2-6.95,23,23,0,0,1,17.4,7.7v5.1a23.23,23.23,0,0,0-7.85-7.3,20.8,20.8,0,1,0,0,36.2,22.75,22.75,0,0,0,7.85-7.4V775A22.43,22.43,0,0,1,908.31,782.66Z" transform="translate(-363.22 -291.43)"/><path d="M989.11,781.36v-75h3.2v41a20.5,20.5,0,0,1,8.45-8.8,23.69,23.69,0,0,1,12-3.3,23.73,23.73,0,0,1,23.8,23.6,23.73,23.73,0,0,1-23.8,23.6,23.31,23.31,0,0,1-11.7-3.25,22.11,22.11,0,0,1-8.7-8.75v10.9Zm3-22.4a21,21,0,0,0,20.75,20.7,19.46,19.46,0,0,0,14.45-6.15,20.76,20.76,0,0,0,0-29.25,19.5,19.5,0,0,0-14.45-6.2,19.76,19.76,0,0,0-14.55,6.25A20.23,20.23,0,0,0,992.11,759Z" transform="translate(-363.22 -291.43)"/><path d="M1092.21,736.36h3.2v45h-3.2v-9.1q-5.1,10.2-17.4,10.2a19,19,0,0,1-14.1-5.8,19.34,19.34,0,0,1-5.7-14.1v-26.2h3.2v26.2a16.82,16.82,0,0,0,4.85,12,15.61,15.61,0,0,0,11.75,5.1,16.92,16.92,0,0,0,12.15-5.1,16.2,16.2,0,0,0,5.25-12Z" transform="translate(-363.22 -291.43)"/><path d="M1158.21,736.36h3.2v40.8q0,11.61-6.4,18.3t-16.8,6.7a25.22,25.22,0,0,1-11.1-2.6,21.49,21.49,0,0,1-8.4-6.8v-4.6a20.65,20.65,0,0,0,8.15,8,22.39,22.39,0,0,0,11.35,3.2,18.9,18.9,0,0,0,14.4-6q5.6-5.94,5.6-16.25v-6.7a20.39,20.39,0,0,1-8.5,8.8,24,24,0,0,1-12,3.3,23,23,0,0,1-16.8-6.95,23.3,23.3,0,0,1,0-33.3,23,23,0,0,1,16.8-6.95,24,24,0,0,1,12.15,3.25,20.1,20.1,0,0,1,8.35,8.95Zm-41.1,22.6a21,21,0,0,0,20.75,20.8,19.46,19.46,0,0,0,14.45-6.15,20.89,20.89,0,0,0,0-29.3,19.46,19.46,0,0,0-14.45-6.15,21,21,0,0,0-20.75,20.8Z" transform="translate(-363.22 -291.43)"/><path d="M1244.51,779.16V782a16.9,16.9,0,0,1-12.1-4.75,16,16,0,0,1-5-12.15v-46.8h3.2v18.2h13.8v2.8h-13.8v25.8a13.75,13.75,0,0,0,13.9,14.1Z" transform="translate(-363.22 -291.43)"/><path d="M1279.11,738.06a12.93,12.93,0,0,0-9.35,4,12.69,12.69,0,0,0-4,9.3v30h-3.2v-45h3.2v6.7a14.15,14.15,0,0,1,5.6-5.6,16.69,16.69,0,0,1,8.5-2.2,14.9,14.9,0,0,1,9,3.2v4A13.51,13.51,0,0,0,1279.11,738.06Z" transform="translate(-363.22 -291.43)"/><path d="M1352.21,736.36v45H1349v-11.2a21.07,21.07,0,0,1-8.4,9,23.28,23.28,0,0,1-12,3.3,23,23,0,0,1-16.8-7,23.3,23.3,0,0,1,0-33.3,23,23,0,0,1,16.8-7,24.11,24.11,0,0,1,12.25,3.4,18.5,18.5,0,0,1,8.15,9v-11.3ZM1308,759a21,21,0,0,0,20.75,20.7,19.46,19.46,0,0,0,14.45-6.15,20.76,20.76,0,0,0,0-29.25,19.51,19.51,0,0,0-14.45-6.2,19.76,19.76,0,0,0-14.55,6.25A20.23,20.23,0,0,0,1308,759Z" transform="translate(-363.22 -291.43)"/><path d="M1396,782.66h-.9a22.18,22.18,0,0,1-16.5-7.1,23.11,23.11,0,0,1-6.9-16.65,22.51,22.51,0,0,1,7-16.5,23.49,23.49,0,0,1,17.2-6.95,23,23,0,0,1,17.4,7.7v5.1a23.13,23.13,0,0,0-7.85-7.3,20.8,20.8,0,1,0,0,36.2,22.67,22.67,0,0,0,7.85-7.4V775A22.41,22.41,0,0,1,1396,782.66Z" transform="translate(-363.22 -291.43)"/><path d="M1431.8,706.56h3.2V752l17.8-15.6h4.1l-20.6,18,25.8,27h-4.3l-22.8-23.7v23.7h-3.2Z" transform="translate(-363.22 -291.43)"/><path d="M1497.7,782.56h-.9a22.5,22.5,0,0,1-16.55-7.15,23,23,0,0,1-7-16.65,22.45,22.45,0,0,1,7-16.45,23.62,23.62,0,0,1,17.3-6.95q10.3,0,17.7,8.2l-31.4,31q6.51,5.21,12.5,5.2a21,21,0,0,0,10.75-2.75,23.48,23.48,0,0,0,7.85-7.35v5.1A22.4,22.4,0,0,1,1497.7,782.56Zm-1-44.4a21,21,0,0,0-20.25,20.3,20.49,20.49,0,0,0,5.3,14l29.1-28.9A20.93,20.93,0,0,0,1496.65,738.16Z" transform="translate(-363.22 -291.43)"/><path d="M1551.3,738.06a13,13,0,0,0-9.35,4,12.69,12.69,0,0,0-4,9.3v30h-3.2v-45h3.2v6.7a14.21,14.21,0,0,1,5.6-5.6,16.75,16.75,0,0,1,8.5-2.2,14.85,14.85,0,0,1,9,3.2v4A13.47,13.47,0,0,0,1551.3,738.06Z" transform="translate(-363.22 -291.43)"/></svg>