<svg xmlns="http://www.w3.org/2000/svg" viewBox="0 0 1100.12 347.58"><defs><style>.cls-1{fill:#212121;stroke:#212121;stroke-miterlimit:10;stroke-width:3px;}</style></defs><g id="Layer_2" data-name="Layer 2"><g id="Layer_1-2" data-name="Layer 1"><path class="cls-1" d="M45.69,58.1h15V397.7h-15Z" transform="translate(-44.19 -56.6)"/><path class="cls-1" d="M213.68,201.18a31.24,31.24,0,0,0-20.83,7.7q-9.06,7.71-9.06,19T194,248.73a123.33,123.33,0,0,0,24.45,17.43q14.26,7.93,28.76,17a87.89,87.89,0,0,1,24.67,23.09,53.29,53.29,0,0,1,10.19,32.15q0,26.73-20.15,45.51t-48.67,18.79a73.57,73.57,0,0,1-33.74-7.93q-15.62-7.9-22.86-21.05V352q17.2,38,55.24,38,23.53,0,39.62-14.49t16.07-32.37q0-17.89-10.19-30.12A94.9,94.9,0,0,0,232.7,292.2q-14.5-8.59-28.76-17a95,95,0,0,1-24.45-20.38,42,42,0,0,1-10.18-28.07q0-16.07,12.9-27.17t33.28-11.09q20.37,0,34.87,15.84v18.57Q235.86,201.19,213.68,201.18Z" transform="translate(-44.19 -56.6)"/><path class="cls-1" d="M414.72,201.18a31.24,31.24,0,0,0-20.83,7.7q-9.06,7.71-9.06,19T395,248.73a123.33,123.33,0,0,0,24.45,17.43q14.26,7.93,28.76,17a87.89,87.89,0,0,1,24.67,23.09,53.29,53.29,0,0,1,10.19,32.15q0,26.73-20.15,45.51t-48.67,18.79a73.57,73.57,0,0,1-33.74-7.93q-15.61-7.9-22.86-21.05V352q17.2,38,55.24,38,23.54,0,39.62-14.49t16.07-32.37q0-17.89-10.19-30.12a94.9,94.9,0,0,0-24.67-20.82q-14.5-8.59-28.76-17a95,95,0,0,1-24.45-20.38,42,42,0,0,1-10.18-28.07q0-16.07,12.9-27.17t33.28-11.09q20.37,0,34.87,15.84v18.57Q436.9,201.19,414.72,201.18Z" transform="translate(-44.19 -56.6)"/><path class="cls-1" d="M585.88,397.7H571.39V58.55h14.49V233.33Q608.52,189,664.21,189q38,0,64.07,26.26t26,63.85V397.7H739.83V279.07q0-31.69-22.19-54.57t-53.43-22.86q-31.25,0-54.79,23.09t-23.54,54.34Z" transform="translate(-44.19 -56.6)"/><path class="cls-1" d="M1013.31,193.94h14.49V397.7h-14.49V356.49q-23.09,46.18-78.78,46.19-38,0-63.85-26.26t-25.81-63.85V193.94h14.49V312.57q0,31.24,22,54.34T934.53,390q31.23,0,55-23.09t23.77-54.34Z" transform="translate(-44.19 -56.6)"/><path class="cls-1" d="M1127.19,400.87q-15.62,0-15.62-14t15.62-14q15.63,0,15.62,14T1127.19,400.87Z" transform="translate(-44.19 -56.6)"/></g></g></svg>